<svg width="71" height="64" viewBox="0 0 71 64" fill="none" xmlns="http://www.w3.org/2000/svg">
<g filter="url(#filter0_d_210_735)">
<rect x="4" width="63" height="56" rx="10" fill="#F8F3D8"/>
<rect x="4.5" y="0.5" width="62" height="55" rx="9.5" stroke="black"/>
<path d="M52.2072 14.4517C51.2708 13.5148 50.159 12.7717 48.9354 12.2647C47.7117 11.7576 46.4001 11.4967 45.0755 11.4967C43.751 11.4967 42.4394 11.7576 41.2157 12.2647C39.9921 12.7717 38.8803 13.5148 37.9439 14.4517L36.0005 16.395L34.0572 14.4517C32.1658 12.5602 29.6004 11.4976 26.9255 11.4976C24.2507 11.4976 21.6853 12.5602 19.7939 14.4517C17.9024 16.3431 16.8398 18.9084 16.8398 21.5833C16.8398 24.2582 17.9024 26.8236 19.7939 28.715L36.0005 44.9217L52.2072 28.715C53.144 27.7786 53.8872 26.6668 54.3942 25.4432C54.9013 24.2195 55.1622 22.9079 55.1622 21.5833C55.1622 20.2588 54.9013 18.9472 54.3942 17.7235C53.8872 16.4998 53.144 15.3881 52.2072 14.4517Z" stroke="#1E1E1E" stroke-linecap="round" stroke-linejoin="round"/>
</g>
<defs>
<filter id="filter0_d_210_735" x="0" y="0" width="71" height="64" filterUnits="userSpaceOnUse" color-interpolation-filters="sRGB">
<feFlood flood-opacity="0" result="BackgroundImageFix"/>
<feColorMatrix in="SourceAlpha" type="matrix" values="0 0 0 0 0 0 0 0 0 0 0 0 0 0 0 0 0 0 127 0" result="hardAlpha"/>
<feOffset dy="4"/>
<feGaussianBlur stdDeviation="2"/>
<feComposite in2="hardAlpha" operator="out"/>
<feColorMatrix type="matrix" values="0 0 0 0 0 0 0 0 0 0 0 0 0 0 0 0 0 0 0.25 0"/>
<feBlend mode="normal" in2="BackgroundImageFix" result="effect1_dropShadow_210_735"/>
<feBlend mode="normal" in="SourceGraphic" in2="effect1_dropShadow_210_735" result="shape"/>
</filter>
</defs>
</svg>
