<svg width="28" height="25" viewBox="0 0 28 25" fill="none" xmlns="http://www.w3.org/2000/svg">
<path d="M24.5603 3.19762C23.9431 2.58017 23.2104 2.09036 22.4039 1.75618C21.5974 1.422 20.7329 1.25 19.8599 1.25C18.9869 1.25 18.1224 1.422 17.3159 1.75618C16.5094 2.09036 15.7766 2.58017 15.1595 3.19762L13.8786 4.47846L12.5978 3.19762C11.3512 1.95099 9.66039 1.25065 7.89739 1.25065C6.1344 1.25065 4.4436 1.95099 3.19698 3.19762C1.95035 4.44425 1.25 6.13504 1.25 7.89804C1.25 9.66104 1.95035 11.3518 3.19698 12.5985L13.8786 23.2801L24.5603 12.5985C25.1778 11.9813 25.6676 11.2485 26.0017 10.442C26.3359 9.6355 26.5079 8.77104 26.5079 7.89804C26.5079 7.02503 26.3359 6.16058 26.0017 5.35407C25.6676 4.54756 25.1778 3.81479 24.5603 3.19762Z" stroke="#1E1E1E" stroke-width="2.5" stroke-linecap="round" stroke-linejoin="round"/>
</svg>
