<svg width="16" height="16" viewBox="0 0 16 16" fill="none" xmlns="http://www.w3.org/2000/svg">
<rect width="16" height="16" rx="2" fill="#FCF9E0" fill-opacity="0.7"/>
<path d="M5.08333 7.41666V5.08333C5.08261 4.36003 5.35066 3.66225 5.83547 3.12547C6.32027 2.58869 6.98723 2.25119 7.70688 2.1785C8.42652 2.10581 9.1475 2.30311 9.72986 2.7321C10.3122 3.16109 10.7144 3.79116 10.8583 4.5M3.91667 7.41666H12.0833C12.7277 7.41666 13.25 7.939 13.25 8.58333V12.6667C13.25 13.311 12.7277 13.8333 12.0833 13.8333H3.91667C3.27233 13.8333 2.75 13.311 2.75 12.6667V8.58333C2.75 7.939 3.27233 7.41666 3.91667 7.41666Z" stroke="#1E1E1E" stroke-linecap="round" stroke-linejoin="round"/>
</svg>
